<?xml version="1.0" encoding="UTF-8" standalone="no"?>
<!-- Created with Inkscape (http://www.inkscape.org/) -->

<svg
   xmlns:dc="http://purl.org/dc/elements/1.1/"
   xmlns:cc="http://creativecommons.org/ns#"
   xmlns:rdf="http://www.w3.org/1999/02/22-rdf-syntax-ns#"
   xmlns:svg="http://www.w3.org/2000/svg"
   xmlns="http://www.w3.org/2000/svg"
   xmlns:sodipodi="http://sodipodi.sourceforge.net/DTD/sodipodi-0.dtd"
   xmlns:inkscape="http://www.inkscape.org/namespaces/inkscape"
   width="209.74863mm"
   height="40.78846mm"
   viewBox="0 0 209.74863 40.78846"
   version="1.1"
   id="svg8"
   inkscape:version="0.92.2 (5c3e80d, 2017-08-06)"
   sodipodi:docname="iotta-logo-white.svg">
  <defs
     id="defs2" />
  <sodipodi:namedview
     id="base"
     pagecolor="#ffffff"
     bordercolor="#666666"
     borderopacity="1.0"
     inkscape:pageopacity="0.0"
     inkscape:pageshadow="2"
     inkscape:zoom="1.979899"
     inkscape:cx="223.70322"
     inkscape:cy="-11.206327"
     inkscape:document-units="mm"
     inkscape:current-layer="text12"
     showgrid="false"
     inkscape:window-width="3200"
     inkscape:window-height="1734"
     inkscape:window-x="-9"
     inkscape:window-y="-9"
     inkscape:window-maximized="1"
     inkscape:pagecheckerboard="true" />
  <metadata
     id="metadata5">
    <rdf:RDF>
      <cc:Work
         rdf:about="">
        <dc:format>image/svg+xml</dc:format>
        <dc:type
           rdf:resource="http://purl.org/dc/dcmitype/StillImage" />
        <dc:title></dc:title>
      </cc:Work>
    </rdf:RDF>
  </metadata>
  <g
     inkscape:label="Layer 1"
     inkscape:groupmode="layer"
     id="layer1"
     transform="translate(-0.09123887,-0.05029399)">
    <g
       aria-label="iotta."
       style="font-style:normal;font-variant:normal;font-weight:normal;font-stretch:normal;font-size:10.58333302px;line-height:1.25;font-family:Syncopate;-inkscape-font-specification:Syncopate;letter-spacing:0px;word-spacing:0px;fill:#000000;fill-opacity:1;stroke:none;stroke-width:0.26458332"
       id="text12">
      <path
         d="M 0.09123887,40.066458 V 0.76540039 H 3.6666602 V 40.066458 Z"
         style="font-style:normal;font-variant:normal;font-weight:300;font-stretch:expanded;font-family:Syncopate;-inkscape-font-specification:'Syncopate Light Expanded';fill:#ffffff;fill-opacity:1;stroke-width:1.46449339"
         id="path4492"
         inkscape:connector-curvature="0" />
      <path
         d="m 64.07702,20.444535 q 0,5.291627 -1.916427,9.153085 -1.916426,3.832853 -5.263027,6.349948 -3.346595,2.488495 -7.894533,3.689837 -4.547937,1.201342 -9.810964,1.201342 -5.291627,0 -9.868169,-1.201342 -4.576537,-1.201342 -7.951738,-3.689837 -3.3752,-2.517095 -5.291627,-6.349948 -1.916426,-3.861458 -1.916426,-9.153085 0,-3.518216 0.8867,-6.378559 0.886705,-2.888937 2.488495,-5.1486056 1.601789,-2.288274 3.861458,-3.9472695 2.288274,-1.6589948 5.062801,-2.7459266 2.803132,-1.1155317 6.006711,-1.63038948 3.203579,-0.54349083 6.721795,-0.54349083 5.263027,0 9.810964,1.20134221 4.547938,1.2013422 7.894533,3.7184426 3.346601,2.4884956 5.263027,6.3499542 1.916427,3.832853 1.916427,9.12448 z m -3.689838,0 q 0,-4.176096 -1.372963,-7.379675 Q 57.669861,9.861281 55.009745,7.6874228 52.349628,5.4849643 48.37376,4.3694271 44.426491,3.2252956 39.192069,3.2252956 q -5.234416,0 -9.23889,1.1441315 -3.975874,1.144137 -6.66459,3.3466011 -2.688722,2.1738581 -4.061685,5.4060368 -1.372958,3.20358 -1.372958,7.32247 0,4.176095 1.372958,7.379674 1.372963,3.203579 4.061685,5.406037 2.688716,2.173858 6.66459,3.317996 4.004474,1.115531 9.23889,1.115531 5.234422,0 9.181691,-1.115531 3.975868,-1.144138 6.635985,-3.317996 2.660116,-2.202458 4.004474,-5.406037 1.372963,-3.203579 1.372963,-7.379674 z"
         style="font-style:normal;font-variant:normal;font-weight:300;font-stretch:expanded;font-family:Syncopate;-inkscape-font-specification:'Syncopate Light Expanded';fill:#ffffff;fill-opacity:1;stroke-width:1.46449339"
         id="path4494"
         inkscape:connector-curvature="0" />
      <path
         d="M 89.362412,4.0261904 V 40.066458 H 85.81559 V 4.0261904 H 67.938478 V 0.76540039 H 107.23953 V 4.0261904 Z"
         style="font-style:normal;font-variant:normal;font-weight:300;font-stretch:expanded;font-family:Syncopate;-inkscape-font-specification:'Syncopate Light Expanded';fill:#ffffff;fill-opacity:1;stroke-width:1.46449339"
         id="path4496"
         inkscape:connector-curvature="0" />
      <path
         d="M 130.89453,4.0261904 V 40.066458 H 127.3477 V 4.0261904 H 109.47059 V 0.76540039 h 39.30105 V 4.0261904 Z"
         style="font-style:normal;font-variant:normal;font-weight:300;font-stretch:expanded;font-family:Syncopate;-inkscape-font-specification:'Syncopate Light Expanded';fill:#ffffff;fill-opacity:1;stroke-width:1.46449339"
         id="path4498"
         inkscape:connector-curvature="0" />
      <path
         d="m 192.07717,40.066458 v -4.347717 q -2.05944,1.115532 -4.69095,2.059448 -2.60291,0.943911 -5.52046,1.63039 -2.88894,0.686484 -5.9495,1.058326 -3.06056,0.371848 -6.00671,0.371848 -3.83286,0 -6.89342,-0.686479 -3.03196,-0.686479 -5.14861,-2.030843 -2.11665,-1.372963 -3.26078,-3.3752 -1.14414,-2.030837 -1.14414,-4.690953 0,-2.631511 1.31575,-4.633748 1.34437,-2.030842 3.80426,-3.518216 2.45989,-1.515979 5.9209,-2.545706 3.48961,-1.058321 7.78012,-1.773405 4.29051,-0.743689 9.2675,-1.201342 5.00559,-0.486258 10.52604,-0.800895 v -3.003358 q 0,-1.830616 -0.68647,-3.2321848 -0.68649,-1.4015632 -1.91644,-2.4312843 -1.22994,-1.058327 -2.88894,-1.7448115 -1.65899,-0.7150843 -3.60403,-1.1441315 -1.91642,-0.4290804 -4.06168,-0.6006739 -2.11664,-0.2002043 -4.2619,-0.2002043 -2.88894,0 -5.26302,0.2860536 -2.37408,0.2860537 -4.43353,0.8008948 -2.05944,0.486258 -3.94726,1.1441371 -1.88783,0.6578797 -3.80426,1.4015637 V 2.6818767 q 3.97587,-1.0583265 8.46661,-1.83062147 4.51933,-0.80089482 9.58213,-0.80089482 4.29051,0 8.00895,0.74368962 3.71844,0.71508427 6.46436,2.31687387 2.74593,1.6017897 4.31912,4.1474904 1.57319,2.5171004 1.57319,6.1497327 v 26.658355 z m 0,-21.309524 q -9.3533,0.514875 -15.98929,1.458774 -6.60738,0.943911 -10.81208,2.316874 -4.2047,1.372964 -6.17833,3.20358 -1.94503,1.830615 -1.94503,4.147489 0,1.887827 0.94391,3.346595 0.97252,1.458774 2.77453,2.459896 1.80201,0.972515 4.37632,1.487373 2.5743,0.486258 5.77788,0.486258 1.88782,0 3.89006,-0.200204 2.03084,-0.228821 4.03308,-0.600674 2.00224,-0.400464 3.94727,-0.915311 1.94503,-0.543491 3.66123,-1.172737 1.7162,-0.629273 3.11777,-1.344358 1.43017,-0.715084 2.40268,-1.458773 z"
         style="font-style:normal;font-variant:normal;font-weight:300;font-stretch:expanded;font-family:Syncopate;-inkscape-font-specification:'Syncopate Light Expanded';fill:#ffffff;fill-opacity:1;stroke-width:1.46449339"
         id="path4500"
         inkscape:connector-curvature="0" />
      <path
         d="M 204.86288,40.066458 V 33.85952 h 4.97699 v 6.206938 z"
         style="font-style:normal;font-variant:normal;font-weight:300;font-stretch:expanded;font-family:Syncopate;-inkscape-font-specification:'Syncopate Light Expanded';fill:#ffffff;fill-opacity:1;stroke-width:1.46449339"
         id="path4502"
         inkscape:connector-curvature="0" />
    </g>
  </g>
</svg>
